
<svg width="8981" height="9287" viewBox="0 0 8981 9287" fill="none" xmlns="http://www.w3.org/2000/svg">
<path d="M3385.29 0H5569.58C5602.19 71.8486 5618.42 155.533 5634.02 232.267C5634.97 237.016 5641.61 242.603 5644.39 246.385C5669.44 326.284 5686.45 413.012 5713.87 492.828C5719.6 509.504 5714.96 545.133 5723.88 561.758L5730.74 559.862C5730.61 549.407 5731.11 552.09 5728.51 541.968L5733.11 540.049L5739.56 545.592C5734.74 567.293 5734.15 554.205 5739.7 570.931C5761.62 637.187 5777.72 706.335 5786.81 774.833L5792.77 776.12L5795.77 751.641L5801.59 754.579C5808.96 783.478 5808.82 855.313 5815.46 869.288L5829.01 864.822C5848.38 889.115 5829.06 983.256 5852.93 988.089L5854.29 959.209L5858.43 957.244C5864.89 975.561 5869.48 1051.19 5872.26 1075.58C5879.67 1076.69 5884.35 1077.71 5891.54 1080.28C5901.13 1113.69 5892.49 1141.66 5901.31 1166.97L5905.63 1167.95C5912.59 1169.62 5909.95 1168.94 5919.18 1171.91C5924.37 1198.23 5926.73 1226.12 5932.28 1251.04C6025.32 1269.12 6330.4 1440.7 6422.39 1494.19C6452 1511.43 6487.01 1550.93 6516.16 1555.54C6580.82 1565.75 6688.91 1518.78 6752.62 1500.83C6774.86 1494.56 6800.14 1495.08 6826.97 1487.9C7030.19 1433.7 7234.23 1382.66 7439 1334.79C7549.41 1308.19 7665.73 1277.69 7776.32 1249.65C7801.28 1243.32 7843.53 1220.79 7867.86 1231.98C7911.92 1316.66 7966.08 1407.16 8012.64 1491.47C8018.83 1502.66 8022.06 1502.75 8022.01 1517.93C8047.07 1600.56 8127.83 1673.21 8144.52 1762.63C8154.11 1769.08 8153.84 1768.58 8165.21 1771.44C8171.53 1805.94 8163.84 1820.12 8195.08 1836.38C8252.29 1955.13 8312.86 2074.41 8378.66 2188.46C8400.35 2226.03 8427.5 2305.88 8450.42 2336.37L8468.24 2342.09C8485.43 2376.3 8462.69 2384.66 8496.84 2401.92C8507.67 2426.58 8563.19 2559.61 8578.01 2567.82C8586.88 2572.73 8583.61 2570.52 8591.2 2577.85C8598.75 2625.12 8595.48 2617.86 8625.44 2657C8654.87 2695.46 8672.92 2751.33 8696.29 2795.83L8861.54 3104.45C8886.82 3151.3 8941.71 3247.51 8955.94 3294.54C8964.49 3296.8 8972.31 3298.91 8981 3300.71V3320.66L8957.04 3324.63L8953.63 3330.25C8886.96 3438.98 8777.23 3545.36 8693.43 3653.4C8529.45 3864.81 8329.28 4076.32 8174.53 4295.05C8165.98 4307.1 8175.35 4500.74 8174.62 4534.74L8176.3 4554.85C8176.03 4666.81 8175.8 4780.04 8172.53 4892.13C8171.35 4932.79 8163.48 4970.16 8191.4 5000.95C8249.06 5064.57 8299.72 5133.6 8355.15 5199.26C8482.88 5348.92 8609.66 5499.35 8735.58 5650.55C8807.93 5738.68 8882.46 5825.13 8952.35 5915.35C8957.63 5922.13 8973.22 5930.45 8981 5934.22V5983.56C8964.31 5990.43 8960.72 5988.47 8952.67 6002.93C8888.73 6118.12 8832.89 6241.17 8772.28 6357.63L8036.79 7766.34C7992.73 7850.19 7945.8 7936.18 7902.55 8020.72C7890.41 8044.55 7856.9 8037.73 7831.7 8031.77C7530.35 7960.79 7229.55 7886.62 6928.33 7815.04C6801.46 7783.12 6665.99 7737.28 6535.85 7728.23C6528.85 7727.77 6443.72 7783.34 6433.44 7790.71C6371.83 7835.19 6311.85 7869.84 6243.77 7903.21C6166.88 7940.91 6090.62 7993.98 6008.31 8018.36C5926.46 8032.04 5925.28 8170.1 5899.54 8232.04C5896.67 8239.04 5890.81 8290.97 5890.76 8291.02C5857.25 8308.3 5871.48 8377.33 5860.11 8417.21C5848.43 8402.39 5860.02 8402.3 5849.75 8392.56C5837.65 8423.76 5838.92 8463.1 5832.74 8495.02C5829.47 8512.07 5814.46 8521.85 5808.82 8552.54C5805 8573.46 5807.23 8611.71 5800.5 8623.12C5798.63 8614.8 5797.27 8608.93 5794.86 8600.7C5774.94 8620.75 5783.31 8671.64 5774.72 8697.56C5753.16 8763 5730.42 8832.21 5711.69 8898.47L5638.93 9157.63C5630.75 9186.68 5614.38 9271.67 5594.59 9287C5517.24 9279.45 5339.63 9285.23 5252.27 9285.27L4564.3 9285.14L3597.03 9285.32C3556.67 9285.54 3428 9292.05 3401.88 9276.77C3399.44 9265.35 3355.19 9114.15 3355.06 9113.83C3337.07 9074.09 3260.38 8746.08 3244.49 8730.3L3240.45 8737.81L3236.32 8738.85C3228.16 8717.66 3233.45 8671.96 3228.04 8660.59C3190.45 8581.83 3179.19 8488.38 3149.36 8405.12C3140.8 8381.2 3141.37 8346.41 3130.47 8324.58L3118.49 8322.85C3106.09 8257.6 3099.51 8214.76 3077.72 8148.87C3067.16 8116.94 3054.3 8082.11 3048.35 8050.1C2917.69 7993.35 2794.07 7939.28 2669.09 7868.88C2634.37 7849.28 2476.91 7739.23 2456.14 7741.74C2368.57 7752.24 2246.24 7781.53 2159.57 7806.08L2177.69 7814.72C2084.79 7822.59 1979.67 7856.29 1887.62 7878.89L1363.8 8006.99C1281.85 8027.04 1190.15 8059.97 1109.23 8058.46C1078.83 7994.48 1034.92 7930.45 1001.62 7865.93L616.838 7134.43C584.302 7073.85 555.603 7014.06 522.021 6953.03C393.139 6718.84 269.631 6473.18 141.435 6236.53C97.8715 6156.09 56.0087 6077.01 20.0918 5994.84C13.2919 5991.43 9.5034 5989.38 2.77974 5985.38C9.89965 5982.01 13.3764 5980.2 20.053 5976.01L10.9807 5969.87C30.006 5960.41 140.318 5817.76 164.302 5788.61L651.443 5202.08C680.137 5167.34 708.217 5132.51 736.537 5097.49C758.783 5069.98 769.274 5038.6 801.196 5026.01C815.67 5004 808.672 4913.32 807.826 4882.76C810.95 4839.7 806.457 4737.61 805.271 4690.04C809.386 4640.89 806.939 4573.49 806.412 4523.24C807.208 4486.22 807.603 4449.2 807.608 4412.17C810.095 4344.69 819.549 4331.06 775.654 4279.21C573.065 4039.91 375.271 3795.67 169.986 3558.79C137.455 3521.25 28.9132 3376.86 0 3359.35V3321.48C5.03441 3318.45 10.0688 3315.41 15.1032 3312.38C78.6422 3203.85 158.672 3034.19 214.202 2927.78L1087.21 1260.47C1129.29 1256.35 1359.94 1316.59 1411.63 1328.94L2123.24 1498.7C2231.43 1524.55 2312.59 1550.99 2429.02 1573.46C2486.42 1547.68 2535.13 1510.44 2588.44 1477.28C2727.02 1391.09 2874.62 1322.88 3021.62 1253.96C3048.04 1241.57 3055.52 1141.23 3058.22 1110.08L3075.76 1108.07C3080.35 1097.02 3085.27 1029.75 3090.26 1004.79L3099.81 1011.35C3123.56 969.309 3105.81 929.928 3118.45 894.144C3128.28 897.405 3124.64 897.018 3134.93 896.85C3147.34 858.419 3138.61 807.429 3149.85 779.867L3160.27 783.455C3183.33 777.525 3163.64 685.339 3183 662.98C3182.48 676.276 3181.47 678.591 3185.83 691.328L3194.53 690.478C3201.65 654.385 3200.3 603.899 3207.65 571.995L3225.39 566.988C3236.38 545.97 3227.24 495.63 3237.85 480.873C3264.18 444.255 3266.22 406.159 3278.49 362.735L3357.11 79.0412C3365.59 48.7171 3376.21 29.3423 3385.29 0ZM2039.12 4939.83C2043.61 4955.57 2039.75 4981.12 2043.89 5003.18L2061.79 4999.13C2063.51 5036.38 2064.43 5081.08 2068.28 5117.55C2068.15 5138.65 2064.06 5142.15 2074.41 5153.56L2090.13 5150.33C2091.4 5173.39 2094.28 5282.26 2104.91 5294.31C2110.76 5285.07 2107.32 5263.79 2112.68 5246.65C2127.46 5271.8 2116.88 5343.01 2128.32 5364.34L2145 5367.57C2138.32 5374.84 2139.79 5371.84 2126.44 5374.8L2127.6 5383.03C2137.95 5390.62 2133.53 5388.48 2146.64 5390.62C2159.16 5411.77 2145.53 5434.82 2158.44 5456.1L2170.12 5456.97C2185.91 5478.11 2207.27 5578.61 2222.09 5613.13C2497.23 6254.54 3028.59 6754.12 3690.87 6981.04C4093.46 7118.96 4548.71 7142.88 4967.74 7060.8C5056.05 7043.48 5141.68 7016.37 5228.62 6996.41C5232.13 6991.91 5235.67 6987.41 5239.17 6982.95C5374.37 6943.75 5513.92 6881.86 5636.93 6815.11C5923.59 6657.9 6177.38 6447.04 6384.47 6194.06C6418.66 6151.82 6446.9 6104.34 6479.19 6060.05C6624.2 5861.37 6735.8 5629.68 6801.41 5392.8C6804.41 5381.94 6826.74 5369.38 6825.24 5354.79C6828.29 5337.19 6825.88 5275.43 6837.29 5267.66L6847.21 5272.71C6856.75 5262.25 6855.62 5236.37 6857.3 5218.82C6862.21 5199.17 6863.17 5192.9 6872.22 5175.21L6876.85 5173.25C6879.72 5157.25 6880.45 5150.52 6881.49 5134.24C6893.18 5076.48 6886.81 4927.96 6896.64 4858.53C6898.45 4894.63 6901.05 4933.15 6901.14 4969.12L6906.18 4972.98C6919.51 4939.42 6919.55 4514.78 6912.69 4465.03C6914.6 4422.08 6910.46 4380.79 6907.14 4338.01C6914.87 4327.08 6890.68 4283.94 6885.86 4262.98L6885.08 4251.77C6884.9 4232.03 6882.45 4194.49 6874.13 4177.2L6869.03 4177.5L6862.12 4200.43C6858.85 4149.34 6832.79 3988.29 6809.37 3954.44L6803.32 3956.94L6800.64 3976.64C6773.72 3784.76 6662.49 3595.24 6575.91 3422.24C6561.5 3393.42 6533.62 3374.92 6518.98 3345.82C6235.77 2893.32 5799.13 2557.34 5299.52 2376.05C4791.35 2191.68 4321.83 2194.11 3803.56 2323.29L3800.47 2334.29C3704.69 2354.6 3610.24 2391.21 3520.44 2428.27C3065.47 2616.04 2677.21 2952.8 2410.66 3365.74C2290.61 3551.7 2208.17 3763.83 2131.61 3970.83C2120.63 4000.52 2124.65 4048.72 2115.31 4072.78L2109.12 4058.19L2105.73 4059.11C2102.82 4076.2 2097.71 4093.46 2095.51 4108.71C2090.75 4141.79 2093.1 4193.05 2085.4 4224.4C2083.42 4215.15 2081.45 4195.83 2075.93 4191.73C2060.58 4215.1 2064.12 4308.84 2060.24 4345C2056.44 4330.87 2056.4 4327.09 2046.66 4315.83L2041.82 4320.22L2042.85 4333.51L2039.34 4418.82C2032.72 4596.87 2034.86 4762.3 2039.12 4939.83Z" fill="white"/>
</svg>
